<svg width="32" height="32" viewBox="0 0 32 32" fill="none" xmlns="http://www.w3.org/2000/svg">
<rect width="32" height="32" rx="8" fill="url(#paint0_linear_2_27)"/>
<rect width="32" height="32" rx="8" fill="url(#paint1_radial_2_27)" fill-opacity="0.1"/>
<path d="M6.452 23.5V9.794H14.988V11.796H8.674V15.118H13.8V17.12H8.674V23.5H6.452ZM22.138 23.742C21.39 23.742 20.686 23.61 20.026 23.346C19.366 23.0673 18.7793 22.642 18.266 22.07C17.7673 21.498 17.3787 20.772 17.1 19.892C16.8213 18.9973 16.682 17.9413 16.682 16.724C16.682 15.6533 16.792 14.7147 17.012 13.908C17.232 13.1013 17.5253 12.4267 17.892 11.884C18.2733 11.3267 18.6987 10.8793 19.168 10.542C19.652 10.2047 20.1507 9.96267 20.664 9.816C21.192 9.66933 21.7127 9.596 22.226 9.596C23.2673 9.596 24.1473 9.83067 24.866 10.3C25.5993 10.7693 26.164 11.4293 26.56 12.28L24.998 13.446L24.822 13.556L24.712 13.38C24.7267 13.2627 24.712 13.1527 24.668 13.05C24.6387 12.9473 24.5653 12.7933 24.448 12.588C24.1253 12.192 23.788 11.928 23.436 11.796C23.0987 11.664 22.7393 11.598 22.358 11.598C21.9327 11.598 21.5293 11.708 21.148 11.928C20.7667 12.1333 20.422 12.4487 20.114 12.874C19.806 13.2993 19.564 13.8273 19.388 14.458C19.2267 15.074 19.146 15.7927 19.146 16.614C19.146 17.406 19.2193 18.1173 19.366 18.748C19.5273 19.364 19.74 19.892 20.004 20.332C20.2827 20.772 20.6053 21.1093 20.972 21.344C21.3533 21.5787 21.764 21.696 22.204 21.696C22.556 21.696 22.8787 21.6447 23.172 21.542C23.48 21.4393 23.7587 21.278 24.008 21.058C24.2573 20.838 24.4847 20.5447 24.69 20.178L26.406 21.454C25.8927 22.2753 25.2913 22.862 24.602 23.214C23.9127 23.566 23.0913 23.742 22.138 23.742Z" fill="black"/>
<defs>
<linearGradient id="paint0_linear_2_27" x1="0" y1="16" x2="32" y2="16" gradientUnits="userSpaceOnUse">
<stop stop-color="#FF943B"/>
<stop offset="1" stop-color="#FF5A1D"/>
</linearGradient>
<radialGradient id="paint1_radial_2_27" cx="0" cy="0" r="1" gradientUnits="userSpaceOnUse" gradientTransform="translate(16 16) rotate(90) scale(16)">
<stop stop-color="white"/>
<stop offset="1"/>
</radialGradient>
</defs>
</svg>
