<svg width="601" height="91" viewBox="0 0 601 91" fill="none" xmlns="http://www.w3.org/2000/svg">
<g clip-path="url(#clip0_2_2)">
<rect width="601" height="91" fill="white"/>
<path d="M0 34H4L8 35L11 34.5L19 31.5L29 32.5L35 30L42.5 29.5H47.5L50.5 31L55 28.5H60.5H65.5L72 29.5L77 28L82.5 29L91.5 25.5H107L114 23H120.5H127.5L136.5 22H144L149.5 21.5L153 23.5L167 23L179 24.5L183.5 26L187.5 23.5L193.5 23L197.5 24.5L202 24L206 23.5L209.5 25L215.5 23.5L220.5 22L224.5 22.5L230.5 24L233 25.5L238 25L243 23.5L247 21H253.5L257.5 19L259.5 21L262.5 22.5L265.5 20.5L270 20H274.5L279 20.5L281 20L286 19L288 17.5L297 16.5" stroke="#F2F2F7"/>
<path d="M501 18.5L513 17L521 15.5L532 16L537 17H545L551 17.5L555.5 17L561.5 14.5L567.5 16L572.5 15.5L581.5 17.5H600" stroke="#F2F2F7"/>
<path d="M447 19.5L457 17H463L472.5 18M480 18L492.5 16.5L499 14.5L503 14L511.5 13L519 8.5L523.5 5L527.5 3L531.5 2H539L546.5 3.5L552 5.5L556.5 7.5L562.5 9L567.5 10L572 13L578.5 15L586 17L593 17.5H600" stroke="#F2F2F7"/>
<path d="M0 16.5H2.5L5 15.5H7H8.5L10 16.5L11.5 15.5H14L17 17.5H20.5L31.5 16.5L41.5 15.5L48.5 14.5L55.5 13L62 8H69.5L73 6L78 3.5L88.5 2.5L92 1.5L96.5 2.5H100L105 5.5L110.5 8L116 11L124 13L127 14.5L137 15.5H146L152 16L155.5 18.5L164.5 17.5L168.5 15.5H180.5L185 16.5L191.5 15.5L196.5 13L201 10L204.5 8L207 7H208.5H212.5H216L218 8L220.5 9.5L222.5 11H227.5L231 12.5L234.5 13.5L242 16L252 16.5L262 17.5H270.5H274L280.5 15.5H288L297.5 16.5L303.5 17.5L308 19.5H314H319.5H329H337L343.5 17.5H348.5L352.5 19.5H367.5L374.5 18.5L383 21L389 16.5H391L397.5 17.5L404.5 18.5L415.5 17.5L424.5 18.5L427.5 19.5H429.5L433.5 18.5L450 19.5L457 21H464L468.5 19.5L472.5 18.5L474.5 16.5L481 18.5L495.5 19.5L498 16.5L504.5 20L517.5 19.5L527 22.5L532.5 25L543.5 25.5L546.5 25L550.5 26.5L555.5 27L565 25.5L575 25L580 26.5L591 25L596.5 24H600" stroke="#F2F2F7"/>
<path d="M127 15L118 14H110L106.5 12.5L106 14.5L101.5 14L99.5 14.5L95.5 15L92 13L89 11.5L86.5 12.5L83.5 13L79.5 14.5H72L69.5 13L67 15L62 14H57.5L49 14.5" stroke="#F2F2F7"/>
<path d="M600.5 34L592.5 33.5L590.5 32.5H576H575.5L572 33.5H562L559.5 32.5L553 31.5H542.5L539.5 32.5L535.5 32L530.5 31L522.5 30L512.5 29.5L504.5 29L503.5 31L498 32L495 31L493 29.5L487.5 28L482 27.5L470.5 31.5H466L462.5 31L456.5 31.5L453 32.5L440.5 34L438.5 35L432.5 34.5L428.5 33.5L420.5 32.5L407 32H397.5L374 31.5L370 32.5L361 34.5L355.5 36H349.5L344.5 37.5H341.5L335.5 39.5L327.5 41.5L320 44H312L305 43.5L299.5 41.5L290.5 40.5H281.5H276.5L271 39.5L264 40.5L256.5 42H249.5L243.5 41.5L237.5 40.5L230 41.5L225 43L211.5 45H205L192.5 46.5L182 49.5L170.5 53L161.5 55L151.5 57.5L126.5 64.5L120 66L110.5 68H104L94 71L88.5 73.5L67 78.5L56.5 81.5L43.5 84L34 85L20 90.5H12L4 87L0.5 86" stroke="#F2F2F7"/>
<path d="M0.5 45.5L8.5 47L17.5 48L23.5 49.5L28 53.5L36 55.5H41.5L50.5 59L57 62H68L74 64L80.5 67L85.5 69L88.5 73.5" stroke="#F2F2F7"/>
</g>
<defs>
<clipPath id="clip0_2_2">
<rect width="601" height="91" fill="white"/>
</clipPath>
</defs>
</svg>
